<?xml version="1.0" encoding="UTF-8"?>
<svg xmlns="http://www.w3.org/2000/svg" xmlns:xlink="http://www.w3.org/1999/xlink" width="907.8pt" height="907.8pt" viewBox="0 0 907.8 907.8pt" version="1.1">
  <defs>
    <clipPath id="clip1">
      <path d="M 0 931 L 907.800781 931 L 907.800781 1000.03125 L 0 1000.03125 Z M 0 931 "/>
    </clipPath>
  </defs>
  <g id="surface1">
    <path style=" stroke:none;fill-rule:nonzero;fill:rgb(0%,0%,0%);fill-opacity:1;" d="M 801.351563 747.769531 L 797.09375 737.101563 L 794.089844 737.101563 L 794.089844 753.285156 L 796.972656 753.285156 L 796.972656 743.027344 L 800.5 751.785156 L 802.199219 751.785156 L 805.730469 743.027344 L 805.730469 753.285156 L 808.632813 753.285156 L 808.632813 737.113281 L 805.628906 737.113281 Z M 779.71875 739.539063 L 783.976563 739.539063 L 783.976563 753.285156 L 786.855469 753.285156 L 786.855469 739.496094 L 791.113281 739.496094 L 791.113281 737.058594 L 779.71875 737.058594 Z M 384.722656 0 C 349.363281 -0.0390625 314.125 4.214844 279.789063 12.664063 L 344.414063 157.910156 C 357.761719 156.019531 371.230469 155.070313 384.710938 155.0625 C 541.363281 155.0625 668.285156 282.019531 668.285156 438.636719 C 668.382813 522.769531 631.035156 602.585938 566.371094 656.414063 L 631.019531 801.605469 C 747.105469 722.738281 823.359375 589.640625 823.359375 438.65625 C 823.347656 196.410156 626.949219 0 384.722656 0 Z M 313.402344 468.773438 L 202.984375 220.921875 C 138.332031 274.738281 100.980469 354.527344 101.0625 438.648438 C 101.0625 595.296875 228.070313 722.285156 384.699219 722.285156 C 398.164063 722.28125 411.613281 721.332031 424.945313 719.441406 L 314.890625 472.21875 C 314.40625 471.046875 313.867188 469.945313 313.402344 468.773438 "/>
  </g>
</svg>
