<svg id="svg" version="1.1" xmlns="http://www.w3.org/2000/svg" xmlns:xlink="http://www.w3.org/1999/xlink" width="400" height="400" viewBox="0, 0, 400,400"><g id="svgg"><path id="path0" d="M125.468 110.265 C 125.321 110.413,125.200 117.791,125.200 126.662 L 125.200 142.790 126.792 143.795 C 127.668 144.348,128.512 144.800,128.668 144.800 C 128.932 144.800,139.935 150.096,142.600 151.506 C 144.195 152.350,144.316 152.409,149.400 154.812 C 151.820 155.956,154.340 157.173,155.000 157.516 C 156.762 158.433,156.841 158.472,163.800 161.806 C 167.320 163.492,170.740 165.157,171.400 165.506 C 173.018 166.362,172.925 166.317,180.200 169.809 C 183.720 171.498,189.390 174.233,192.800 175.885 C 196.210 177.537,199.630 179.184,200.400 179.544 C 201.170 179.905,201.860 180.335,201.933 180.500 C 202.007 180.665,202.272 180.800,202.522 180.800 C 202.918 180.800,209.076 183.682,212.600 185.516 C 213.907 186.197,214.215 186.346,216.600 187.456 C 217.480 187.865,218.260 188.335,218.333 188.500 C 218.407 188.665,218.669 188.800,218.916 188.800 C 219.163 188.800,221.263 189.722,223.583 190.849 C 225.902 191.976,230.500 194.209,233.800 195.812 C 237.100 197.415,240.128 198.833,240.530 198.962 C 242.954 199.744,243.618 199.378,207.400 217.223 C 198.380 221.667,183.800 228.862,175.000 233.212 C 159.385 240.931,135.711 252.574,128.700 255.982 L 125.200 257.684 125.200 273.842 C 125.200 282.729,125.311 290.000,125.447 290.000 C 125.675 290.000,191.078 257.567,193.800 256.104 C 194.460 255.749,195.315 255.311,195.700 255.129 C 196.085 254.948,196.715 254.652,197.100 254.471 C 197.485 254.289,198.340 253.856,199.000 253.507 C 199.660 253.158,211.180 247.442,224.600 240.805 C 238.020 234.168,249.540 228.450,250.200 228.098 C 250.860 227.747,251.670 227.336,252.000 227.187 C 252.330 227.037,253.230 226.587,254.000 226.187 C 254.770 225.786,255.670 225.336,256.000 225.187 C 256.330 225.037,257.230 224.587,258.000 224.187 C 258.770 223.786,259.670 223.336,260.000 223.187 C 260.330 223.037,261.230 222.587,262.000 222.187 C 262.770 221.786,263.670 221.336,264.000 221.187 C 264.330 221.037,265.230 220.587,266.000 220.187 C 266.770 219.786,267.670 219.339,268.000 219.192 C 268.808 218.832,269.954 218.269,271.400 217.519 C 272.060 217.177,273.095 216.665,273.700 216.381 L 274.800 215.865 274.800 200.406 L 274.800 184.947 240.300 167.620 C 221.325 158.091,190.320 142.535,171.400 133.053 C 152.480 123.570,136.940 115.674,136.867 115.506 C 136.793 115.338,136.493 115.200,136.199 115.200 C 135.557 115.200,133.055 113.923,132.867 113.500 C 132.793 113.335,132.493 113.200,132.199 113.200 C 131.557 113.200,129.055 111.923,128.867 111.500 C 128.793 111.335,128.472 111.200,128.153 111.200 C 127.833 111.200,127.159 110.929,126.654 110.599 C 126.149 110.268,125.616 110.118,125.468 110.265 " stroke="none" fill="#f3f3f2" fill-rule="evenodd"></path><path id="path1" d="M0.000 200.000 L 0.000 400.000 200.000 400.000 L 400.000 400.000 400.000 200.000 L 400.000 0.000 200.000 0.000 L 0.000 0.000 0.000 200.000 M127.038 109.800 C 128.073 110.350,129.147 110.800,129.426 110.800 C 129.705 110.800,129.993 110.935,130.067 111.100 C 130.255 111.523,132.757 112.800,133.399 112.800 C 133.693 112.800,133.993 112.935,134.067 113.100 C 134.140 113.265,142.660 117.630,153.000 122.800 C 163.340 127.970,171.860 132.335,171.933 132.500 C 172.007 132.665,172.307 132.800,172.601 132.800 C 173.243 132.800,175.745 134.077,175.933 134.500 C 176.007 134.665,176.307 134.800,176.601 134.800 C 177.243 134.800,179.745 136.077,179.933 136.500 C 180.007 136.665,180.307 136.800,180.601 136.800 C 181.243 136.800,183.745 138.077,183.933 138.500 C 184.007 138.665,184.307 138.800,184.601 138.800 C 185.243 138.800,187.745 140.077,187.933 140.500 C 188.007 140.665,188.325 140.800,188.641 140.800 C 188.957 140.800,189.929 141.250,190.800 141.800 C 191.671 142.350,192.571 142.800,192.800 142.800 C 193.029 142.800,193.929 143.250,194.800 143.800 C 195.671 144.350,196.571 144.800,196.800 144.800 C 197.029 144.800,197.929 145.250,198.800 145.800 C 199.671 146.350,200.571 146.800,200.800 146.800 C 201.029 146.800,201.929 147.250,202.800 147.800 C 203.671 148.350,204.571 148.800,204.800 148.800 C 205.029 148.800,205.929 149.250,206.800 149.800 C 207.671 150.350,208.571 150.800,208.800 150.800 C 209.029 150.800,209.929 151.250,210.800 151.800 C 211.671 152.350,212.571 152.800,212.800 152.800 C 213.029 152.800,213.929 153.250,214.800 153.800 C 215.671 154.350,216.571 154.800,216.800 154.800 C 217.029 154.800,217.929 155.250,218.800 155.800 C 219.671 156.350,220.622 156.800,220.912 156.800 C 221.202 156.800,221.611 156.971,221.820 157.180 C 222.029 157.388,234.080 163.512,248.600 170.788 C 263.120 178.063,275.225 184.317,275.500 184.684 C 276.381 185.862,276.205 215.351,275.311 216.395 C 274.932 216.838,274.389 217.200,274.103 217.200 C 273.818 217.200,272.871 217.650,272.000 218.200 C 271.129 218.750,270.305 219.200,270.169 219.200 C 270.033 219.200,253.964 227.133,234.461 236.829 C 193.779 257.053,198.183 254.860,196.400 255.787 C 195.630 256.187,194.730 256.637,194.400 256.787 C 194.070 256.936,193.260 257.346,192.600 257.698 C 191.940 258.049,179.160 264.395,164.200 271.800 C 149.240 279.204,136.730 285.424,136.400 285.620 C 135.763 286.000,133.799 286.950,132.800 287.362 C 132.470 287.498,131.660 287.954,131.000 288.375 C 130.340 288.797,129.507 289.155,129.149 289.171 C 128.791 289.187,128.274 289.470,128.000 289.800 C 127.726 290.130,127.179 290.400,126.784 290.400 C 126.390 290.400,125.985 290.625,125.885 290.900 C 125.747 291.277,125.519 291.291,124.951 290.957 C 123.301 289.983,123.718 256.800,125.381 256.800 C 125.685 256.800,125.993 256.665,126.067 256.500 C 126.140 256.335,126.920 255.865,127.800 255.456 C 130.282 254.301,130.520 254.184,131.800 253.494 C 132.813 252.947,150.818 244.155,155.200 242.067 C 155.970 241.700,156.660 241.265,156.733 241.100 C 156.807 240.935,157.107 240.800,157.401 240.800 C 158.043 240.800,160.545 239.523,160.733 239.100 C 160.807 238.935,161.107 238.800,161.401 238.800 C 162.043 238.800,164.545 237.523,164.733 237.100 C 164.807 236.935,165.107 236.800,165.401 236.800 C 166.043 236.800,168.545 235.523,168.733 235.100 C 168.807 234.935,169.302 234.800,169.833 234.800 C 170.365 234.800,170.800 234.655,170.800 234.477 C 170.800 234.123,173.588 232.800,174.334 232.800 C 174.590 232.800,174.800 232.655,174.800 232.477 C 174.800 232.132,177.580 230.800,178.301 230.800 C 178.539 230.800,178.793 230.665,178.867 230.500 C 179.055 230.077,181.557 228.800,182.199 228.800 C 182.493 228.800,182.793 228.665,182.867 228.500 C 182.940 228.335,183.720 227.865,184.600 227.456 C 187.013 226.333,187.286 226.200,188.800 225.413 C 189.570 225.013,190.470 224.563,190.800 224.413 C 191.130 224.264,191.940 223.852,192.600 223.498 C 193.260 223.144,199.380 220.123,206.200 216.785 C 213.020 213.447,222.203 208.935,226.606 206.758 C 231.010 204.581,234.820 202.800,235.073 202.800 C 235.326 202.800,235.593 202.665,235.667 202.500 C 235.860 202.065,238.365 200.800,239.032 200.800 C 240.824 200.800,238.995 199.391,234.100 197.002 C 231.075 195.526,225.270 192.699,221.200 190.721 C 217.130 188.743,211.094 185.791,207.786 184.162 C 204.479 182.533,201.554 181.200,201.286 181.200 C 201.019 181.200,200.800 181.060,200.800 180.888 C 200.800 180.716,199.900 180.227,198.800 179.800 C 197.700 179.373,196.800 178.884,196.800 178.712 C 196.800 178.540,196.579 178.400,196.309 178.400 C 196.038 178.400,193.473 177.250,190.609 175.846 C 187.744 174.441,181.692 171.471,177.161 169.246 C 172.629 167.020,168.714 165.200,168.461 165.200 C 168.207 165.200,168.000 165.020,168.000 164.800 C 168.000 164.580,167.781 164.400,167.513 164.400 C 167.245 164.400,164.230 163.032,160.813 161.361 C 157.396 159.689,151.270 156.705,147.200 154.730 C 143.130 152.756,137.094 149.803,133.786 148.170 C 130.479 146.536,127.554 145.200,127.286 145.200 C 127.019 145.200,126.800 145.020,126.800 144.800 C 126.800 144.580,126.537 144.400,126.216 144.400 C 125.894 144.400,125.264 144.006,124.816 143.525 C 123.377 141.981,123.610 108.800,125.059 108.800 C 125.113 108.800,126.004 109.250,127.038 109.800 " stroke="none" fill="#64a434" fill-rule="evenodd"></path><path id="path2" d="M124.480 109.280 C 123.509 110.251,123.824 142.461,124.816 143.525 C 125.264 144.006,125.879 144.400,126.182 144.400 C 126.485 144.400,126.802 144.607,126.887 144.860 C 126.971 145.113,127.271 145.243,127.554 145.149 C 127.837 145.054,127.378 144.613,126.534 144.169 L 125.000 143.361 124.896 126.481 C 124.783 108.220,124.681 109.021,126.960 110.210 C 127.597 110.542,128.200 110.734,128.298 110.635 C 128.427 110.506,125.366 108.800,125.005 108.800 C 124.980 108.800,124.744 109.016,124.480 109.280 M128.833 110.957 C 129.421 111.511,132.134 112.799,132.321 112.613 C 132.445 112.488,131.974 112.170,131.274 111.905 C 130.573 111.641,130.000 111.284,130.000 111.112 C 130.000 110.941,129.700 110.800,129.333 110.800 C 128.967 110.800,128.742 110.871,128.833 110.957 M132.833 112.957 C 133.421 113.511,136.134 114.799,136.321 114.613 C 136.445 114.488,135.974 114.170,135.274 113.905 C 134.573 113.641,134.000 113.284,134.000 113.112 C 134.000 112.941,133.700 112.800,133.333 112.800 C 132.967 112.800,132.742 112.871,132.833 112.957 M136.833 114.957 C 137.362 115.455,140.125 116.808,140.286 116.648 C 140.391 116.542,139.706 116.083,138.764 115.628 C 137.139 114.843,136.463 114.608,136.833 114.957 M140.800 116.991 C 140.800 117.277,144.113 118.821,144.308 118.625 C 144.401 118.532,143.706 118.083,142.764 117.628 C 140.924 116.739,140.800 116.699,140.800 116.991 M144.800 118.991 C 144.800 119.277,148.113 120.821,148.308 120.625 C 148.401 120.532,147.706 120.083,146.764 119.628 C 144.924 118.739,144.800 118.699,144.800 118.991 M148.800 120.991 C 148.800 121.277,152.113 122.821,152.308 122.625 C 152.401 122.532,151.706 122.083,150.764 121.628 C 148.924 120.739,148.800 120.699,148.800 120.991 M152.800 122.991 C 152.800 123.277,156.113 124.821,156.308 124.625 C 156.401 124.532,155.706 124.083,154.764 123.628 C 152.924 122.739,152.800 122.699,152.800 122.991 M157.376 125.413 C 157.804 125.736,158.333 126.000,158.553 126.000 C 158.773 126.000,158.604 125.736,158.176 125.413 C 157.749 125.090,157.220 124.825,157.000 124.825 C 156.780 124.825,156.949 125.090,157.376 125.413 M161.376 127.413 C 161.804 127.736,162.333 128.000,162.553 128.000 C 162.773 128.000,162.604 127.736,162.176 127.413 C 161.749 127.090,161.220 126.825,161.000 126.825 C 160.780 126.825,160.949 127.090,161.376 127.413 M165.376 129.413 C 165.804 129.736,166.333 130.000,166.553 130.000 C 166.773 130.000,166.604 129.736,166.176 129.413 C 165.749 129.090,165.220 128.825,165.000 128.825 C 164.780 128.825,164.949 129.090,165.376 129.413 M169.376 131.413 C 169.804 131.736,170.333 132.000,170.553 132.000 C 170.773 132.000,170.604 131.736,170.176 131.413 C 169.749 131.090,169.220 130.825,169.000 130.825 C 168.780 130.825,168.949 131.090,169.376 131.413 M172.433 132.951 C 172.973 133.439,175.998 134.764,175.990 134.508 C 175.979 134.194,173.214 132.800,172.602 132.800 C 172.418 132.800,172.342 132.868,172.433 132.951 M176.433 134.951 C 176.973 135.439,179.998 136.764,179.990 136.508 C 179.979 136.194,177.214 134.800,176.602 134.800 C 176.418 134.800,176.342 134.868,176.433 134.951 M180.433 136.951 C 180.973 137.439,183.998 138.764,183.990 138.508 C 183.979 138.194,181.214 136.800,180.602 136.800 C 180.418 136.800,180.342 136.868,180.433 136.951 M184.433 138.951 C 184.973 139.439,187.998 140.764,187.990 140.508 C 187.979 140.194,185.214 138.800,184.602 138.800 C 184.418 138.800,184.342 138.868,184.433 138.951 M188.433 140.957 C 188.924 141.419,191.719 142.814,191.864 142.669 C 192.083 142.451,189.297 140.800,188.710 140.800 C 188.466 140.800,188.342 140.871,188.433 140.957 M192.433 142.957 C 192.924 143.419,195.719 144.814,195.864 144.669 C 196.083 144.451,193.297 142.800,192.710 142.800 C 192.466 142.800,192.342 142.871,192.433 142.957 M196.433 144.957 C 196.924 145.419,199.719 146.814,199.864 146.669 C 200.083 146.451,197.297 144.800,196.710 144.800 C 196.466 144.800,196.342 144.871,196.433 144.957 M128.400 145.391 C 128.400 145.637,131.699 147.235,131.865 147.069 C 131.985 146.948,128.896 145.200,128.562 145.200 C 128.473 145.200,128.400 145.286,128.400 145.391 M200.433 146.957 C 200.924 147.419,203.719 148.814,203.864 148.669 C 204.083 148.451,201.297 146.800,200.710 146.800 C 200.466 146.800,200.342 146.871,200.433 146.957 M132.400 147.345 C 132.400 147.669,139.992 151.341,140.210 151.123 C 140.315 151.019,138.746 150.138,136.724 149.166 C 132.290 147.036,132.400 147.082,132.400 147.345 M204.433 148.957 C 204.924 149.419,207.719 150.814,207.864 150.669 C 208.083 150.451,205.297 148.800,204.710 148.800 C 204.466 148.800,204.342 148.871,204.433 148.957 M208.433 150.957 C 208.924 151.419,211.719 152.814,211.864 152.669 C 212.083 152.451,209.297 150.800,208.710 150.800 C 208.466 150.800,208.342 150.871,208.433 150.957 M140.800 151.392 C 140.800 151.670,144.048 153.285,144.234 153.099 C 144.320 153.014,143.655 152.551,142.757 152.072 C 141.053 151.162,140.800 151.074,140.800 151.392 M212.433 152.957 C 212.924 153.419,215.719 154.814,215.864 154.669 C 216.083 154.451,213.297 152.800,212.710 152.800 C 212.466 152.800,212.342 152.871,212.433 152.957 M144.800 153.380 C 144.800 153.479,147.095 154.671,149.900 156.029 C 152.705 157.387,156.240 159.111,157.755 159.861 C 159.270 160.610,160.581 161.153,160.667 161.066 C 160.754 160.980,158.704 159.872,156.112 158.606 C 153.521 157.339,149.984 155.604,148.254 154.751 C 145.028 153.161,144.800 153.070,144.800 153.380 M216.433 154.957 C 216.924 155.419,219.719 156.814,219.864 156.669 C 220.083 156.451,217.297 154.800,216.710 154.800 C 216.466 154.800,216.342 154.871,216.433 154.957 M220.433 156.957 C 220.924 157.419,223.719 158.814,223.864 158.669 C 224.083 158.451,221.297 156.800,220.710 156.800 C 220.466 156.800,220.342 156.871,220.433 156.957 M224.433 158.957 C 224.962 159.455,227.725 160.808,227.886 160.648 C 227.991 160.542,227.306 160.083,226.364 159.628 C 224.739 158.843,224.063 158.608,224.433 158.957 M228.433 160.957 C 228.962 161.455,231.725 162.808,231.886 162.648 C 231.991 162.542,231.306 162.083,230.364 161.628 C 228.739 160.843,228.063 160.608,228.433 160.957 M161.200 161.385 C 161.200 161.624,166.971 164.403,167.442 164.391 C 167.775 164.382,161.707 161.200,161.358 161.200 C 161.271 161.200,161.200 161.283,161.200 161.385 M232.433 162.957 C 232.962 163.455,235.725 164.808,235.886 164.648 C 235.991 164.542,235.306 164.083,234.364 163.628 C 232.739 162.843,232.063 162.608,232.433 162.957 M236.433 164.957 C 236.962 165.455,239.725 166.808,239.886 166.648 C 239.991 166.542,239.306 166.083,238.364 165.628 C 236.739 164.843,236.063 164.608,236.433 164.957 M169.600 165.399 C 169.600 165.589,172.789 167.200,173.164 167.200 C 173.516 167.200,171.882 166.199,170.700 165.690 C 170.095 165.430,169.600 165.299,169.600 165.399 M240.400 166.991 C 240.400 167.277,243.713 168.821,243.908 168.625 C 244.001 168.532,243.306 168.083,242.364 167.628 C 240.524 166.739,240.400 166.699,240.400 166.991 M173.600 167.353 C 173.600 167.647,185.228 173.305,185.426 173.107 C 185.512 173.022,183.037 171.702,179.926 170.176 C 173.427 166.986,173.600 167.063,173.600 167.353 M244.400 168.991 C 244.400 169.277,247.713 170.821,247.908 170.625 C 248.001 170.532,247.306 170.083,246.364 169.628 C 244.524 168.739,244.400 168.699,244.400 168.991 M248.400 170.991 C 248.400 171.277,251.713 172.821,251.908 172.625 C 252.001 172.532,251.306 172.083,250.364 171.628 C 248.524 170.739,248.400 170.699,248.400 170.991 M252.400 172.991 C 252.400 173.277,255.713 174.821,255.908 174.625 C 256.001 174.532,255.306 174.083,254.364 173.628 C 252.524 172.739,252.400 172.699,252.400 172.991 M186.000 173.391 C 186.000 173.637,189.299 175.235,189.465 175.069 C 189.585 174.948,186.496 173.200,186.162 173.200 C 186.073 173.200,186.000 173.286,186.000 173.391 M256.976 175.413 C 257.404 175.736,257.933 176.000,258.153 176.000 C 258.373 176.000,258.204 175.736,257.776 175.413 C 257.349 175.090,256.820 174.825,256.600 174.825 C 256.380 174.825,256.549 175.090,256.976 175.413 M190.000 175.385 C 190.000 175.624,195.771 178.403,196.242 178.391 C 196.575 178.382,190.507 175.200,190.158 175.200 C 190.071 175.200,190.000 175.283,190.000 175.385 M260.976 177.413 C 261.404 177.736,261.933 178.000,262.153 178.000 C 262.373 178.000,262.204 177.736,261.776 177.413 C 261.349 177.090,260.820 176.825,260.600 176.825 C 260.380 176.825,260.549 177.090,260.976 177.413 M262.800 178.192 C 262.800 178.470,266.048 180.085,266.234 179.899 C 266.320 179.814,265.655 179.351,264.757 178.872 C 263.053 177.962,262.800 177.874,262.800 178.192 M196.800 178.730 C 196.800 178.892,197.700 179.373,198.800 179.800 C 199.900 180.227,200.800 180.716,200.800 180.888 C 200.800 181.060,201.115 181.195,201.500 181.188 C 202.113 181.177,202.101 181.117,201.400 180.699 C 199.728 179.702,196.800 178.449,196.800 178.730 M266.800 180.192 C 266.800 180.470,270.048 182.085,270.234 181.899 C 270.320 181.814,269.655 181.351,268.757 180.872 C 267.053 179.962,266.800 179.874,266.800 180.192 M202.400 181.391 C 202.400 181.637,205.699 183.235,205.865 183.069 C 205.985 182.948,202.896 181.200,202.562 181.200 C 202.473 181.200,202.400 181.286,202.400 181.391 M270.800 182.192 C 270.800 182.470,274.048 184.085,274.234 183.899 C 274.320 183.814,273.655 183.351,272.757 182.872 C 271.053 181.962,270.800 181.874,270.800 182.192 M206.400 183.345 C 206.400 183.669,213.992 187.341,214.210 187.123 C 214.315 187.019,212.746 186.138,210.724 185.166 C 206.290 183.036,206.400 183.082,206.400 183.345 M275.112 199.892 C 275.224 215.732,275.221 215.803,274.368 216.500 C 273.814 216.953,273.708 217.200,274.067 217.200 C 274.372 217.200,274.932 216.838,275.311 216.395 C 276.205 215.351,276.380 185.874,275.500 184.669 C 275.098 184.118,275.022 187.089,275.112 199.892 M214.800 187.391 C 214.800 187.637,218.099 189.235,218.265 189.069 C 218.385 188.948,215.296 187.200,214.962 187.200 C 214.873 187.200,214.800 187.286,214.800 187.391 M218.800 189.370 C 218.800 189.464,221.095 190.654,223.900 192.016 C 226.705 193.378,230.240 195.106,231.755 195.858 C 233.270 196.609,234.581 197.153,234.667 197.066 C 234.754 196.980,232.704 195.872,230.112 194.606 C 227.521 193.339,223.984 191.604,222.254 190.751 C 219.047 189.170,218.800 189.071,218.800 189.370 M235.200 197.405 C 235.200 197.518,236.190 198.064,237.400 198.617 C 238.669 199.198,239.600 199.882,239.600 200.235 C 239.600 200.572,239.780 200.736,240.000 200.600 C 240.827 200.089,240.329 199.559,237.929 198.397 C 235.300 197.123,235.200 197.087,235.200 197.405 M237.424 201.413 C 236.996 201.736,236.827 202.000,237.047 202.000 C 237.267 202.000,237.796 201.736,238.224 201.413 C 238.651 201.090,238.820 200.825,238.600 200.825 C 238.380 200.825,237.851 201.090,237.424 201.413 M233.424 203.413 C 232.996 203.736,232.827 204.000,233.047 204.000 C 233.267 204.000,233.796 203.736,234.224 203.413 C 234.651 203.090,234.820 202.825,234.600 202.825 C 234.380 202.825,233.851 203.090,233.424 203.413 M228.657 205.667 C 227.808 206.096,227.202 206.535,227.310 206.643 C 227.474 206.807,230.230 205.463,230.767 204.957 C 231.164 204.583,230.080 204.948,228.657 205.667 M224.657 207.667 C 223.808 208.096,223.202 208.535,223.310 208.643 C 223.474 208.807,226.230 207.463,226.767 206.957 C 227.164 206.583,226.080 206.948,224.657 207.667 M220.657 209.667 C 219.808 210.096,219.202 210.535,219.310 210.643 C 219.474 210.807,222.230 209.463,222.767 208.957 C 223.164 208.583,222.080 208.948,220.657 209.667 M215.101 212.323 C 213.616 213.100,212.485 213.818,212.586 213.919 C 212.770 214.103,218.800 211.214,218.800 210.942 C 218.800 210.572,217.570 211.031,215.101 212.323 M209.902 214.904 C 209.079 215.363,208.476 215.810,208.564 215.897 C 208.751 216.084,212.000 214.472,212.000 214.192 C 212.000 213.857,211.443 214.047,209.902 214.904 M205.024 217.413 C 204.596 217.736,204.427 218.000,204.647 218.000 C 204.867 218.000,205.396 217.736,205.824 217.413 C 206.251 217.090,206.420 216.825,206.200 216.825 C 205.980 216.825,205.451 217.090,205.024 217.413 M271.200 218.200 C 270.210 218.730,269.615 219.172,269.877 219.182 C 270.368 219.201,273.200 217.648,273.200 217.360 C 273.200 217.131,273.183 217.138,271.200 218.200 M200.257 219.667 C 199.408 220.096,198.792 220.525,198.887 220.621 C 199.086 220.819,202.400 219.281,202.400 218.991 C 202.400 218.681,201.891 218.841,200.257 219.667 M267.200 220.200 C 266.210 220.730,265.542 221.172,265.716 221.182 C 266.141 221.206,269.200 219.634,269.200 219.392 C 269.200 219.127,269.217 219.120,267.200 220.200 M196.262 221.647 C 195.416 222.093,194.810 222.544,194.915 222.649 C 195.075 222.809,197.839 221.454,198.367 220.957 C 198.813 220.537,197.634 220.923,196.262 221.647 M263.000 222.231 C 262.120 222.757,261.542 223.190,261.716 223.193 C 262.154 223.203,265.200 221.628,265.200 221.392 C 265.200 221.043,264.618 221.264,263.000 222.231 M192.081 223.681 C 190.270 224.800,190.741 225.043,192.653 223.977 C 194.536 222.927,194.692 222.791,193.967 222.833 C 193.655 222.851,192.807 223.233,192.081 223.681 M259.000 224.231 C 258.120 224.757,257.542 225.190,257.716 225.193 C 258.154 225.203,261.200 223.628,261.200 223.392 C 261.200 223.043,260.618 223.264,259.000 224.231 M188.297 225.566 C 186.649 226.622,186.452 226.935,187.800 226.354 C 189.555 225.597,190.709 224.794,189.989 224.829 C 189.665 224.845,188.904 225.177,188.297 225.566 M255.102 226.104 C 254.279 226.563,253.676 227.010,253.764 227.097 C 253.951 227.284,257.200 225.672,257.200 225.392 C 257.200 225.057,256.643 225.247,255.102 226.104 M184.109 227.554 C 183.398 227.909,182.813 228.339,182.809 228.508 C 182.801 228.764,185.826 227.440,186.367 226.951 C 186.790 226.568,185.267 226.975,184.109 227.554 M251.102 228.104 C 250.279 228.563,249.663 228.996,249.733 229.066 C 249.901 229.234,253.200 227.639,253.200 227.391 C 253.200 227.058,252.642 227.248,251.102 228.104 M180.109 229.554 C 179.398 229.909,178.813 230.339,178.809 230.508 C 178.801 230.764,181.826 229.440,182.367 228.951 C 182.790 228.568,181.267 228.975,180.109 229.554 M247.102 230.104 C 246.279 230.563,245.663 230.996,245.733 231.066 C 245.901 231.234,249.200 229.639,249.200 229.391 C 249.200 229.058,248.642 229.248,247.102 230.104 M176.100 231.524 C 175.385 231.865,174.800 232.276,174.800 232.436 C 174.800 232.596,175.520 232.380,176.400 231.954 C 177.280 231.529,178.000 231.096,178.000 230.991 C 178.000 230.707,177.544 230.835,176.100 231.524 M223.704 241.731 C 212.212 247.489,199.741 253.709,195.991 255.553 C 192.241 257.398,189.252 258.985,189.348 259.081 C 189.444 259.177,189.900 259.063,190.361 258.828 C 190.822 258.592,191.515 258.252,191.900 258.071 C 192.285 257.889,193.185 257.439,193.900 257.071 C 194.615 256.702,195.785 256.098,196.500 255.729 C 198.281 254.811,196.462 255.715,222.100 242.996 C 234.805 236.693,245.200 231.460,245.200 231.368 C 245.200 230.989,243.757 231.685,223.704 241.731 M172.100 233.524 C 171.385 233.865,170.800 234.276,170.800 234.436 C 170.800 234.596,171.520 234.380,172.400 233.954 C 173.280 233.529,174.000 233.096,174.000 232.991 C 174.000 232.707,173.544 232.835,172.100 233.524 M168.800 235.112 C 168.800 235.284,168.227 235.641,167.526 235.905 C 166.826 236.170,166.355 236.488,166.479 236.613 C 166.604 236.737,167.402 236.451,168.253 235.977 C 170.189 234.897,170.289 234.800,169.467 234.800 C 169.100 234.800,168.800 234.941,168.800 235.112 M164.800 237.112 C 164.800 237.284,164.227 237.641,163.526 237.905 C 162.826 238.170,162.355 238.488,162.479 238.613 C 162.604 238.737,163.402 238.451,164.253 237.977 C 166.189 236.897,166.289 236.800,165.467 236.800 C 165.100 236.800,164.800 236.941,164.800 237.112 M160.800 239.200 C 160.800 239.420,160.564 239.600,160.276 239.600 C 159.989 239.600,159.404 239.873,158.976 240.207 C 158.263 240.764,158.297 240.773,159.400 240.325 C 161.323 239.542,162.340 238.800,161.489 238.800 C 161.110 238.800,160.800 238.980,160.800 239.200 M156.800 241.200 C 156.800 241.420,156.564 241.600,156.276 241.600 C 155.989 241.600,155.404 241.873,154.976 242.207 C 154.263 242.764,154.297 242.773,155.400 242.325 C 157.323 241.542,158.340 240.800,157.489 240.800 C 157.110 240.800,156.800 240.980,156.800 241.200 M152.224 243.413 C 151.676 243.827,151.617 243.996,152.024 243.987 C 152.341 243.980,152.949 243.710,153.376 243.387 C 153.924 242.973,153.983 242.804,153.576 242.813 C 153.259 242.820,152.651 243.090,152.224 243.413 M149.285 244.871 C 148.342 245.329,147.649 245.782,147.746 245.879 C 147.945 246.079,151.200 244.489,151.200 244.192 C 151.200 243.937,151.247 243.920,149.285 244.871 M143.457 247.667 C 142.608 248.096,141.992 248.525,142.087 248.621 C 142.286 248.819,145.600 247.281,145.600 246.991 C 145.600 246.681,145.091 246.841,143.457 247.667 M139.457 249.667 C 138.608 250.096,138.002 250.535,138.110 250.643 C 138.274 250.807,141.030 249.463,141.567 248.957 C 141.964 248.583,140.880 248.948,139.457 249.667 M135.462 251.647 C 134.616 252.093,134.010 252.544,134.115 252.649 C 134.275 252.809,137.039 251.454,137.567 250.957 C 138.013 250.537,136.834 250.923,135.462 251.647 M131.281 253.681 C 129.470 254.800,129.941 255.043,131.853 253.977 C 133.736 252.927,133.892 252.791,133.167 252.833 C 132.855 252.851,132.007 253.233,131.281 253.681 M127.309 255.554 C 126.598 255.909,126.013 256.331,126.009 256.491 C 125.999 256.816,127.770 256.119,128.989 255.318 C 130.110 254.582,128.918 254.749,127.309 255.554 M124.410 257.582 C 123.558 259.173,124.066 290.434,124.951 290.957 C 125.519 291.291,125.747 291.277,125.885 290.900 C 125.985 290.625,126.390 290.400,126.784 290.400 C 127.179 290.400,127.726 290.130,128.000 289.800 C 128.443 289.266,128.339 289.266,127.062 289.800 C 126.272 290.130,125.440 290.400,125.213 290.400 C 124.561 290.400,124.648 257.328,125.300 257.065 C 125.677 256.913,125.680 256.855,125.314 256.832 C 125.047 256.814,124.640 257.152,124.410 257.582 M186.702 260.104 C 185.879 260.563,185.263 260.996,185.333 261.066 C 185.501 261.234,188.800 259.639,188.800 259.391 C 188.800 259.058,188.242 259.248,186.702 260.104 M182.702 262.104 C 181.879 262.563,181.263 262.996,181.333 263.066 C 181.501 263.234,184.800 261.639,184.800 261.391 C 184.800 261.058,184.242 261.248,182.702 262.104 M178.702 264.104 C 177.879 264.563,177.263 264.996,177.333 265.066 C 177.501 265.234,180.800 263.639,180.800 263.391 C 180.800 263.058,180.242 263.248,178.702 264.104 M174.702 266.104 C 173.879 266.563,173.263 266.996,173.333 267.066 C 173.501 267.234,176.800 265.639,176.800 265.391 C 176.800 265.058,176.242 265.248,174.702 266.104 M170.702 268.104 C 169.879 268.563,169.263 268.996,169.333 269.066 C 169.501 269.234,172.800 267.639,172.800 267.391 C 172.800 267.058,172.242 267.248,170.702 268.104 M152.400 277.222 C 143.710 281.591,136.766 285.174,136.968 285.183 C 137.406 285.203,168.800 269.601,168.800 269.363 C 168.800 269.005,167.635 269.563,152.400 277.222 M134.400 286.200 C 133.410 286.730,132.797 287.172,133.039 287.182 C 133.628 287.206,135.926 286.044,136.216 285.575 C 136.526 285.072,136.471 285.091,134.400 286.200 M130.400 288.200 C 129.410 288.730,128.797 289.172,129.039 289.182 C 129.628 289.206,131.926 288.044,132.216 287.575 C 132.526 287.072,132.471 287.091,130.400 288.200 " stroke="none" fill="#94c076" fill-rule="evenodd"></path><path id="path3" d="M125.067 109.867 C 124.701 110.232,124.739 142.490,125.106 143.044 C 125.415 143.510,128.000 144.945,128.000 144.650 C 128.000 144.556,127.364 144.104,126.587 143.645 L 125.174 142.812 125.287 126.206 C 125.349 117.072,125.385 109.600,125.367 109.600 C 125.348 109.600,125.213 109.720,125.067 109.867 M126.624 110.587 C 127.051 110.910,127.670 111.174,128.000 111.173 C 128.348 111.172,128.180 110.932,127.600 110.600 C 126.285 109.848,125.636 109.840,126.624 110.587 M130.624 112.587 C 131.051 112.910,131.670 113.174,132.000 113.173 C 132.348 113.172,132.180 112.932,131.600 112.600 C 130.285 111.848,129.636 111.840,130.624 112.587 M134.624 114.587 C 135.051 114.910,135.670 115.174,136.000 115.173 C 136.348 115.172,136.180 114.932,135.600 114.600 C 134.285 113.848,133.636 113.840,134.624 114.587 M138.033 116.157 C 138.562 116.655,141.325 118.008,141.486 117.848 C 141.591 117.742,140.906 117.283,139.964 116.828 C 138.339 116.043,137.663 115.808,138.033 116.157 M142.060 118.172 C 142.485 118.632,155.714 125.219,155.880 125.054 C 155.963 124.970,153.027 123.394,149.356 121.551 C 142.421 118.070,141.625 117.701,142.060 118.172 M156.400 125.391 C 156.400 125.637,159.699 127.235,159.865 127.069 C 159.985 126.948,156.896 125.200,156.562 125.200 C 156.473 125.200,156.400 125.286,156.400 125.391 M160.400 127.391 C 160.400 127.637,163.699 129.235,163.865 129.069 C 163.985 128.948,160.896 127.200,160.562 127.200 C 160.473 127.200,160.400 127.286,160.400 127.391 M164.400 129.391 C 164.400 129.637,167.699 131.235,167.865 131.069 C 167.985 130.948,164.896 129.200,164.562 129.200 C 164.473 129.200,164.400 129.286,164.400 129.391 M168.400 131.391 C 168.400 131.637,171.699 133.235,171.865 133.069 C 171.985 132.948,168.896 131.200,168.562 131.200 C 168.473 131.200,168.400 131.286,168.400 131.391 M172.400 133.399 C 172.400 133.589,175.589 135.200,175.964 135.200 C 176.316 135.200,174.682 134.199,173.500 133.690 C 172.895 133.430,172.400 133.299,172.400 133.399 M176.400 135.399 C 176.400 135.589,179.589 137.200,179.964 137.200 C 180.316 137.200,178.682 136.199,177.500 135.690 C 176.895 135.430,176.400 135.299,176.400 135.399 M180.400 137.399 C 180.400 137.589,183.589 139.200,183.964 139.200 C 184.316 139.200,182.682 138.199,181.500 137.690 C 180.895 137.430,180.400 137.299,180.400 137.399 M184.400 139.398 C 184.400 139.485,189.125 141.919,194.900 144.807 C 200.675 147.694,205.220 149.875,205.000 149.653 C 204.314 148.962,184.400 139.047,184.400 139.398 M129.200 145.400 C 130.515 146.152,131.164 146.160,130.176 145.413 C 129.749 145.090,129.130 144.826,128.800 144.827 C 128.452 144.828,128.620 145.068,129.200 145.400 M137.411 149.318 C 138.438 149.993,140.400 150.835,140.400 150.601 C 140.400 150.411,137.211 148.800,136.836 148.800 C 136.718 148.800,136.977 149.033,137.411 149.318 M206.211 150.518 C 207.240 151.194,209.200 152.034,209.200 151.800 C 209.200 151.577,206.156 150.000,205.727 150.000 C 205.559 150.000,205.777 150.233,206.211 150.518 M141.600 151.400 C 142.915 152.152,143.564 152.160,142.576 151.413 C 142.149 151.090,141.530 150.826,141.200 150.827 C 140.852 150.828,141.020 151.068,141.600 151.400 M210.211 152.518 C 211.240 153.194,213.200 154.034,213.200 153.800 C 213.200 153.577,210.156 152.000,209.727 152.000 C 209.559 152.000,209.777 152.233,210.211 152.518 M145.746 153.402 C 147.205 154.163,147.575 154.168,146.576 153.413 C 146.149 153.090,145.530 152.821,145.200 152.815 C 144.870 152.810,145.116 153.074,145.746 153.402 M214.211 154.518 C 215.240 155.194,217.200 156.034,217.200 155.800 C 217.200 155.577,214.156 154.000,213.727 154.000 C 213.559 154.000,213.777 154.233,214.211 154.518 M218.211 156.518 C 219.240 157.194,221.200 158.034,221.200 157.800 C 221.200 157.577,218.156 156.000,217.727 156.000 C 217.559 156.000,217.777 156.233,218.211 156.518 M153.824 157.387 C 154.251 157.710,154.859 157.980,155.176 157.987 C 155.583 157.996,155.524 157.827,154.976 157.413 C 154.549 157.090,153.941 156.820,153.624 156.813 C 153.217 156.804,153.276 156.973,153.824 157.387 M222.211 158.518 C 223.240 159.194,225.200 160.034,225.200 159.800 C 225.200 159.577,222.156 158.000,221.727 158.000 C 221.559 158.000,221.777 158.233,222.211 158.518 M158.000 159.400 C 159.315 160.152,159.964 160.160,158.976 159.413 C 158.549 159.090,157.930 158.826,157.600 158.827 C 157.252 158.828,157.420 159.068,158.000 159.400 M226.211 160.518 C 227.240 161.194,229.200 162.034,229.200 161.800 C 229.200 161.577,226.156 160.000,225.727 160.000 C 225.559 160.000,225.777 160.233,226.211 160.518 M230.211 162.518 C 231.240 163.194,233.200 164.034,233.200 163.800 C 233.200 163.577,230.156 162.000,229.727 162.000 C 229.559 162.000,229.777 162.233,230.211 162.518 M166.211 163.318 C 167.238 163.993,169.200 164.835,169.200 164.601 C 169.200 164.411,166.011 162.800,165.636 162.800 C 165.518 162.800,165.777 163.033,166.211 163.318 M234.211 164.518 C 235.238 165.193,237.200 166.035,237.200 165.801 C 237.200 165.611,234.011 164.000,233.636 164.000 C 233.518 164.000,233.777 164.233,234.211 164.518 M170.224 165.387 C 170.651 165.710,171.259 165.980,171.576 165.987 C 171.983 165.996,171.924 165.827,171.376 165.413 C 170.949 165.090,170.341 164.820,170.024 164.813 C 169.617 164.804,169.676 164.973,170.224 165.387 M237.670 166.182 C 238.110 166.657,259.319 177.215,259.490 177.044 C 259.622 176.911,239.123 166.498,237.839 166.045 C 237.598 165.960,237.521 166.022,237.670 166.182 M174.546 167.402 C 176.005 168.163,176.375 168.168,175.376 167.413 C 174.949 167.090,174.330 166.821,174.000 166.815 C 173.670 166.810,173.916 167.074,174.546 167.402 M178.033 168.957 C 178.562 169.455,181.325 170.808,181.486 170.648 C 181.591 170.542,180.906 170.083,179.964 169.628 C 178.339 168.843,177.663 168.608,178.033 168.957 M182.611 171.318 C 183.640 171.994,185.600 172.834,185.600 172.600 C 185.600 172.377,182.556 170.800,182.127 170.800 C 181.959 170.800,182.177 171.033,182.611 171.318 M186.800 173.400 C 188.115 174.152,188.764 174.160,187.776 173.413 C 187.349 173.090,186.730 172.826,186.400 172.827 C 186.052 172.828,186.220 173.068,186.800 173.400 M195.024 177.387 C 195.451 177.710,195.980 177.975,196.200 177.975 C 196.420 177.975,196.251 177.710,195.824 177.387 C 195.396 177.064,194.867 176.800,194.647 176.800 C 194.427 176.800,194.596 177.064,195.024 177.387 M260.000 177.391 C 260.000 177.637,263.299 179.235,263.465 179.069 C 263.585 178.948,260.496 177.200,260.162 177.200 C 260.073 177.200,260.000 177.286,260.000 177.391 M198.433 178.951 C 198.973 179.439,201.998 180.764,201.990 180.508 C 201.979 180.194,199.214 178.800,198.602 178.800 C 198.418 178.800,198.342 178.868,198.433 178.951 M264.000 179.391 C 264.000 179.637,267.299 181.235,267.465 181.069 C 267.585 180.948,264.496 179.200,264.162 179.200 C 264.073 179.200,264.000 179.286,264.000 179.391 M203.200 181.400 C 204.515 182.152,205.164 182.160,204.176 181.413 C 203.749 181.090,203.130 180.826,202.800 180.827 C 202.452 180.828,202.620 181.068,203.200 181.400 M268.000 181.391 C 268.000 181.637,271.299 183.235,271.465 183.069 C 271.585 182.948,268.496 181.200,268.162 181.200 C 268.073 181.200,268.000 181.286,268.000 181.391 M272.168 183.548 C 272.286 183.739,272.927 184.121,273.591 184.396 L 274.800 184.897 274.800 200.304 C 274.800 214.496,274.745 215.756,274.100 216.278 C 273.469 216.788,273.489 216.801,274.305 216.406 L 275.209 215.967 275.105 200.316 L 275.000 184.665 273.800 183.962 C 272.465 183.179,271.842 183.021,272.168 183.548 M211.411 185.318 C 212.374 185.950,214.400 186.840,214.400 186.631 C 214.400 186.547,213.760 186.101,212.977 185.640 C 211.445 184.736,210.105 184.461,211.411 185.318 M215.600 187.400 C 216.915 188.152,217.564 188.160,216.576 187.413 C 216.149 187.090,215.530 186.826,215.200 186.827 C 214.852 186.828,215.020 187.068,215.600 187.400 M219.746 189.402 C 221.205 190.163,221.575 190.168,220.576 189.413 C 220.149 189.090,219.530 188.821,219.200 188.815 C 218.870 188.810,219.116 189.074,219.746 189.402 M223.811 191.318 C 224.838 191.993,226.800 192.835,226.800 192.601 C 226.800 192.411,223.611 190.800,223.236 190.800 C 223.118 190.800,223.377 191.033,223.811 191.318 M227.824 193.387 C 228.251 193.710,228.859 193.980,229.176 193.987 C 229.583 193.996,229.524 193.827,228.976 193.413 C 228.549 193.090,227.941 192.820,227.624 192.813 C 227.217 192.804,227.276 192.973,227.824 193.387 M230.000 194.192 C 230.000 194.470,233.248 196.085,233.434 195.899 C 233.520 195.814,232.855 195.351,231.957 194.872 C 230.253 193.962,230.000 193.874,230.000 194.192 M239.900 199.065 C 240.175 199.176,240.400 199.597,240.400 200.000 C 240.400 200.403,240.175 200.824,239.900 200.935 C 239.586 201.062,239.568 201.149,239.851 201.168 C 240.543 201.217,241.318 200.084,241.057 199.405 C 240.930 199.072,240.504 198.814,240.113 198.832 C 239.694 198.850,239.606 198.946,239.900 199.065 M237.102 202.104 C 236.279 202.563,235.663 202.996,235.733 203.066 C 235.901 203.234,239.200 201.639,239.200 201.391 C 239.200 201.058,238.642 201.248,237.102 202.104 M230.256 205.469 C 227.867 206.666,225.988 207.722,226.082 207.815 C 226.269 208.002,235.200 203.653,235.200 203.374 C 235.200 203.040,234.573 203.306,230.256 205.469 M223.500 208.827 C 222.675 209.263,222.000 209.701,222.000 209.801 C 222.000 210.035,223.962 209.192,224.989 208.518 C 226.194 207.727,225.190 207.935,223.500 208.827 M219.500 210.827 C 218.675 211.263,218.000 211.708,218.000 211.818 C 218.000 211.996,221.159 210.519,221.567 210.151 C 222.027 209.734,220.825 210.128,219.500 210.827 M215.824 212.613 C 214.825 213.368,215.195 213.363,216.654 212.602 C 217.284 212.274,217.530 212.010,217.200 212.015 C 216.870 212.021,216.251 212.290,215.824 212.613 M212.885 214.071 C 211.942 214.529,211.235 214.969,211.315 215.049 C 211.495 215.228,214.800 213.656,214.800 213.391 C 214.800 213.137,214.846 213.121,212.885 214.071 M203.874 218.484 C 200.395 220.243,197.617 221.750,197.700 221.834 C 197.874 222.008,210.800 215.630,210.800 215.370 C 210.800 215.024,210.067 215.354,203.874 218.484 M271.097 217.566 C 269.449 218.622,269.252 218.935,270.600 218.354 C 272.355 217.597,273.509 216.794,272.789 216.829 C 272.465 216.845,271.704 217.177,271.097 217.566 M267.424 219.413 C 266.876 219.827,266.817 219.996,267.224 219.987 C 267.541 219.980,268.149 219.710,268.576 219.387 C 269.124 218.973,269.183 218.804,268.776 218.813 C 268.459 218.820,267.851 219.090,267.424 219.413 M263.424 221.413 C 262.876 221.827,262.817 221.996,263.224 221.987 C 263.541 221.980,264.149 221.710,264.576 221.387 C 265.124 220.973,265.183 220.804,264.776 220.813 C 264.459 220.820,263.851 221.090,263.424 221.413 M195.100 222.827 C 194.275 223.263,193.600 223.701,193.600 223.801 C 193.600 224.035,195.562 223.192,196.589 222.518 C 197.794 221.727,196.790 221.935,195.100 222.827 M259.424 223.413 C 258.876 223.827,258.817 223.996,259.224 223.987 C 259.541 223.980,260.149 223.710,260.576 223.387 C 261.124 222.973,261.183 222.804,260.776 222.813 C 260.459 222.820,259.851 223.090,259.424 223.413 M191.600 224.600 C 191.020 224.932,190.852 225.172,191.200 225.173 C 191.530 225.174,192.149 224.910,192.576 224.587 C 193.564 223.840,192.915 223.848,191.600 224.600 M255.424 225.413 C 254.436 226.160,255.085 226.152,256.400 225.400 C 256.980 225.068,257.148 224.828,256.800 224.827 C 256.470 224.826,255.851 225.090,255.424 225.413 M187.424 226.613 C 186.436 227.360,187.085 227.352,188.400 226.600 C 188.980 226.268,189.148 226.028,188.800 226.027 C 188.470 226.026,187.851 226.290,187.424 226.613 M251.424 227.413 C 250.436 228.160,251.085 228.152,252.400 227.400 C 252.980 227.068,253.148 226.828,252.800 226.827 C 252.470 226.826,251.851 227.090,251.424 227.413 M184.485 228.071 C 183.542 228.529,182.835 228.969,182.915 229.049 C 183.095 229.228,186.400 227.656,186.400 227.391 C 186.400 227.137,186.446 227.121,184.485 228.071 M247.424 229.413 C 246.436 230.160,247.085 230.152,248.400 229.400 C 248.980 229.068,249.148 228.828,248.800 228.827 C 248.470 228.826,247.851 229.090,247.424 229.413 M180.485 230.071 C 179.542 230.529,178.835 230.969,178.915 231.049 C 179.095 231.228,182.400 229.656,182.400 229.391 C 182.400 229.137,182.446 229.121,180.485 230.071 M173.471 233.482 C 171.090 234.688,169.211 235.744,169.296 235.830 C 169.474 236.007,178.400 231.639,178.400 231.374 C 178.400 231.036,177.757 231.311,173.471 233.482 M166.662 236.847 C 165.816 237.293,165.210 237.744,165.315 237.849 C 165.475 238.009,168.239 236.654,168.767 236.157 C 169.213 235.737,168.034 236.123,166.662 236.847 M162.662 238.847 C 161.816 239.293,161.210 239.744,161.315 239.849 C 161.475 240.009,164.239 238.654,164.767 238.157 C 165.213 237.737,164.034 238.123,162.662 238.847 M159.200 240.600 C 158.650 240.914,158.380 241.172,158.600 241.172 C 158.820 241.172,159.450 240.914,160.000 240.600 C 160.550 240.286,160.820 240.028,160.600 240.028 C 160.380 240.028,159.750 240.286,159.200 240.600 M156.000 242.200 C 155.010 242.730,154.342 243.172,154.516 243.182 C 154.941 243.206,158.000 241.634,158.000 241.392 C 158.000 241.127,158.017 241.120,156.000 242.200 M151.902 244.104 C 151.079 244.563,150.476 245.010,150.564 245.097 C 150.751 245.284,154.000 243.672,154.000 243.392 C 154.000 243.057,153.443 243.247,151.902 244.104 M145.313 247.365 C 143.064 248.507,141.084 249.596,140.913 249.785 C 140.741 249.974,140.780 250.037,141.000 249.925 C 141.220 249.813,143.335 248.788,145.700 247.647 C 148.065 246.506,150.000 245.489,150.000 245.386 C 150.000 245.035,149.393 245.291,145.313 247.365 M211.376 247.387 C 210.949 247.710,210.780 247.975,211.000 247.975 C 211.220 247.975,211.749 247.710,212.176 247.387 C 212.604 247.064,212.773 246.800,212.553 246.800 C 212.333 246.800,211.804 247.064,211.376 247.387 M207.376 249.387 C 206.949 249.710,206.780 249.975,207.000 249.975 C 207.220 249.975,207.749 249.710,208.176 249.387 C 208.604 249.064,208.773 248.800,208.553 248.800 C 208.333 248.800,207.804 249.064,207.376 249.387 M138.300 250.827 C 137.475 251.263,136.800 251.701,136.800 251.801 C 136.800 252.035,138.762 251.192,139.789 250.518 C 140.994 249.727,139.990 249.935,138.300 250.827 M203.376 251.387 C 202.949 251.710,202.780 251.975,203.000 251.975 C 203.220 251.975,203.749 251.710,204.176 251.387 C 204.604 251.064,204.773 250.800,204.553 250.800 C 204.333 250.800,203.804 251.064,203.376 251.387 M134.300 252.827 C 133.475 253.263,132.800 253.708,132.800 253.818 C 132.800 253.996,135.959 252.519,136.367 252.151 C 136.827 251.734,135.625 252.128,134.300 252.827 M198.697 253.566 C 197.049 254.622,196.852 254.935,198.200 254.354 C 199.955 253.597,201.109 252.794,200.389 252.829 C 200.065 252.845,199.304 253.177,198.697 253.566 M129.900 255.029 C 128.405 255.840,128.496 256.178,130.000 255.400 C 130.660 255.059,131.200 254.694,131.200 254.590 C 131.200 254.332,131.157 254.347,129.900 255.029 M194.697 255.566 C 193.049 256.622,192.852 256.935,194.200 256.354 C 195.955 255.597,197.109 254.794,196.389 254.829 C 196.065 254.845,195.304 255.177,194.697 255.566 M126.624 256.613 C 125.625 257.368,125.995 257.363,127.454 256.602 C 128.084 256.274,128.330 256.010,128.000 256.015 C 127.670 256.021,127.051 256.290,126.624 256.613 M191.024 257.413 C 190.476 257.827,190.417 257.996,190.824 257.987 C 191.141 257.980,191.749 257.710,192.176 257.387 C 192.724 256.973,192.783 256.804,192.376 256.813 C 192.059 256.820,191.451 257.090,191.024 257.413 M125.067 257.467 C 124.624 257.909,124.750 289.922,125.196 290.197 C 125.613 290.455,128.556 289.223,128.251 288.918 C 128.154 288.821,127.527 289.024,126.857 289.371 C 126.188 289.717,125.537 290.000,125.411 290.000 C 125.285 290.000,125.231 282.620,125.291 273.600 C 125.351 264.580,125.385 257.200,125.367 257.200 C 125.348 257.200,125.213 257.320,125.067 257.467 M187.902 258.904 C 187.079 259.363,186.476 259.810,186.564 259.897 C 186.751 260.084,190.000 258.472,190.000 258.192 C 190.000 257.857,189.443 258.047,187.902 258.904 M183.902 260.904 C 183.079 261.363,182.476 261.810,182.564 261.897 C 182.751 262.084,186.000 260.472,186.000 260.192 C 186.000 259.857,185.443 260.047,183.902 260.904 M180.085 262.871 C 179.142 263.329,178.449 263.782,178.546 263.879 C 178.745 264.079,182.000 262.489,182.000 262.192 C 182.000 261.937,182.047 261.920,180.085 262.871 M175.902 264.904 C 175.079 265.363,174.476 265.810,174.564 265.897 C 174.751 266.084,178.000 264.472,178.000 264.192 C 178.000 263.857,177.443 264.047,175.902 264.904 M171.902 266.904 C 171.079 267.363,170.476 267.810,170.564 267.897 C 170.751 268.084,174.000 266.472,174.000 266.192 C 174.000 265.857,173.443 266.047,171.902 266.904 M146.300 279.627 C 145.475 280.063,144.800 280.501,144.800 280.601 C 144.800 280.835,146.762 279.992,147.789 279.318 C 148.994 278.527,147.990 278.735,146.300 279.627 M142.976 281.387 C 142.549 281.710,142.380 281.975,142.600 281.975 C 142.820 281.975,143.349 281.710,143.776 281.387 C 144.204 281.064,144.373 280.800,144.153 280.800 C 143.933 280.800,143.404 281.064,142.976 281.387 M138.976 283.387 C 138.549 283.710,138.380 283.975,138.600 283.975 C 138.820 283.975,139.349 283.710,139.776 283.387 C 140.204 283.064,140.373 282.800,140.153 282.800 C 139.933 282.800,139.404 283.064,138.976 283.387 M134.300 285.627 C 133.475 286.063,132.800 286.501,132.800 286.601 C 132.800 286.835,134.762 285.992,135.789 285.318 C 136.994 284.527,135.990 284.735,134.300 285.627 M130.300 287.627 C 129.475 288.063,128.800 288.501,128.800 288.601 C 128.800 288.835,130.762 287.992,131.789 287.318 C 132.994 286.527,131.990 286.735,130.300 287.627 " stroke="none" fill="#b4d0a0" fill-rule="evenodd"></path><path id="path4" d="" stroke="none" fill="#accc94" fill-rule="evenodd"></path></g></svg>